HIERARCHY
ROOT Hips
{
	OFFSET 0.000000 0.000000 0.000000
	CHANNELS 6 Xposition Yposition Zposition Yrotation Xrotation Zrotation 
	JOINT LeftHip
	{
		OFFSET 0.086059 -0.000429 0.000048
		CHANNELS 3 Yrotation Xrotation Zrotation
		JOINT LeftKnee
		{
			OFFSET 0.000000 -0.415789 0.000001
			CHANNELS 3 Yrotation Xrotation Zrotation
			JOINT LeftAnkle
			{
				OFFSET 0.000000 -0.468641 0.000230
				CHANNELS 3 Yrotation Xrotation Zrotation
				JOINT LeftToe
				{
					OFFSET 0.000000 -0.080523 0.174361
					CHANNELS 3 Yrotation Xrotation Zrotation
					End Site
					{
						OFFSET 0.000000 0.000000 0.000000
					}
				}
			}
		}
	}
	JOINT RightHip
	{
		OFFSET -0.086059 -0.000404 0.000045
		CHANNELS 3 Yrotation Xrotation Zrotation
		JOINT RightKnee
		{
			OFFSET 0.000000 -0.415789 0.000001
			CHANNELS 3 Yrotation Xrotation Zrotation
			JOINT RightAnkle
			{
				OFFSET 0.000000 -0.468641 0.000230
				CHANNELS 3 Yrotation Xrotation Zrotation
				JOINT RightToe
				{
					OFFSET 0.000000 -0.080523 0.174361
					CHANNELS 3 Yrotation Xrotation Zrotation
					End Site
					{
						OFFSET 0.000000 0.000000 0.000000
					}
				}
			}
		}
	}
	JOINT Chest
	{
		OFFSET 0.000000 0.105503 -0.011723
		CHANNELS 3 Yrotation Xrotation Zrotation
		JOINT Chest3
		{
			OFFSET 0.000000 0.218191 -0.010426
			CHANNELS 3 Yrotation Xrotation Zrotation
			JOINT Chest4
			{
				OFFSET 0.000000 0.104252 0.000170
				CHANNELS 3 Yrotation Xrotation Zrotation
				JOINT Neck
				{
					OFFSET 0.000000 0.146206 0.000000
					CHANNELS 3 Yrotation Xrotation Zrotation
					JOINT Head
					{
						OFFSET 0.000000 0.083446 0.000720
						CHANNELS 3 Yrotation Xrotation Zrotation
						End Site
						{
							OFFSET 0.000000 0.000000 0.000000
						}
					}
				}
				JOINT LeftCollar
				{
					OFFSET 0.031427 0.081855 0.000000
					CHANNELS 3 Yrotation Xrotation Zrotation
					JOINT LeftShoulder
					{
						OFFSET 0.143661 0.000000 0.000000
						CHANNELS 3 Yrotation Xrotation Zrotation
						JOINT LeftElbow
						{
							OFFSET 0.312275 0.000000 0.000000
							CHANNELS 3 Yrotation Xrotation Zrotation
							JOINT LeftWrist
							{
								OFFSET 0.224042 0.000000 -0.000056
								CHANNELS 3 Yrotation Xrotation Zrotation
								End Site
								{
									OFFSET 0.000000 0.000000 0.000000
								}
							}
						}
					}
				}
				JOINT RightCollar
				{
					OFFSET -0.031427 0.081855 0.000000
					CHANNELS 3 Yrotation Xrotation Zrotation
					JOINT RightShoulder
					{
						OFFSET -0.143661 0.000000 0.000000
						CHANNELS 3 Yrotation Xrotation Zrotation
						JOINT RightElbow
						{
							OFFSET -0.312275 0.000000 0.000000
							CHANNELS 3 Yrotation Xrotation Zrotation
							JOINT RightWrist
							{
								OFFSET -0.224042 0.000000 -0.000056
								CHANNELS 3 Yrotation Xrotation Zrotation
								End Site
								{
									OFFSET 0.000000 0.000000 0.000000
								}
							}
						}
					}
				}
			}
		}
	}
}
MOTION
Frames: 12
Frame Time: 0.016667
0.000000 0.000000 0.000000 224.104157 0.649054 359.362661 0.016540 349.891128 3.984403 359.289675 14.120271 2.078799 1.773242 357.593129 357.289654 359.235826 358.332909 358.401451 345.881899 2.443748 353.680124 359.990041 8.488317 0.232574 343.468222 355.504335 9.594577 0.956689 1.105028 359.574834 0.793697 4.828937 356.800776 0.629300 358.326053 356.913277 7.896004 6.605019 0.111775 348.490810 3.770992 0.235679 341.288881 333.251760 6.678116 0.545569 355.793984 351.067610 8.135852 357.652705 289.115760 254.224193 332.450177 333.509730 359.989126 3.237599 24.258810 4.850661 352.631945 355.282544 60.371817 322.342727 359.004154 35.026453 315.230962 337.249377 2.912816 359.480514 353.989687 
0.000000 0.000000 0.000000 224.215560 0.694108 359.336563 359.965217 349.815321 4.039858 359.262810 14.131793 2.086796 1.730993 357.627132 357.261775 359.269597 358.378513 358.363447 345.847597 2.497197 353.756593 359.979240 8.358822 0.244995 343.397154 355.538391 9.559233 0.844854 1.086173 359.548002 0.792191 4.838647 356.821101 0.625923 358.336125 356.931932 7.847779 6.611365 0.098062 348.556178 3.739814 0.237148 341.362340 333.200041 6.650004 0.529935 355.830051 351.071219 7.985098 357.553390 289.059815 254.102125 332.419073 333.584617 0.008587 3.290843 24.362967 4.856145 352.634706 355.288179 60.309324 322.350245 358.971986 35.184079 315.176245 337.245686 3.026389 359.543885 354.126449 
0.000000 0.000000 0.000000 224.325222 0.736264 359.302817 359.909871 349.731543 4.097926 359.239267 14.160538 2.096951 1.692818 357.650726 357.244073 359.289859 358.418393 358.353124 345.813075 2.543939 353.835779 359.968692 8.240748 0.260658 343.326745 355.579205 9.526430 0.866382 1.087881 359.535055 0.788875 4.850909 356.844408 0.622509 358.348496 356.953278 7.785211 6.619594 0.090338 348.629877 3.706427 0.241092 341.431335 333.136501 6.627702 0.518374 355.868750 351.074265 7.829665 357.459964 289.005467 253.966498 332.385691 333.636202 0.037267 3.320363 24.459613 4.860875 352.665234 355.296821 60.301281 322.359601 358.904541 35.265985 315.211020 337.247936 3.066525 359.597279 354.158780 
0.000000 0.000000 0.000000 224.418076 0.778283 359.269998 359.860695 349.651393 4.153442 359.219496 14.183965 2.106954 1.661568 357.672563 357.228564 359.313458 358.450482 358.357672 345.786315 2.571047 353.913217 359.959110 8.150195 0.273351 343.264349 355.610259 9.494668 0.878516 1.089286 359.534377 0.785539 4.860077 356.867726 0.619180 358.357892 356.974593 7.725640 6.626164 0.083950 348.700073 3.680354 0.245048 341.493126 333.077246 6.610343 0.510362 355.906584 351.077410 7.682262 357.379679 288.958697 253.839708 332.356077 333.662516 0.056055 3.313764 24.509150 4.867365 352.700685 355.308193 60.309536 322.362015 358.840987 35.320899 315.248808 337.242673 3.054350 359.686799 354.100275 
0.000000 0.000000 0.000000 224.493809 0.821162 359.238681 359.818509 349.578013 4.206267 359.203067 14.196311 2.116238 1.637235 357.692601 357.214683 359.338866 358.477897 358.373630 345.768379 2.576225 353.988874 359.950092 8.092325 0.282583 343.209405 355.625091 9.463600 0.878723 1.092941 359.542790 0.782554 4.863000 356.891819 0.615348 358.361385 356.996590 7.669687 6.629516 0.079014 348.766181 3.667626 0.247409 341.555918 333.026433 6.591226 0.507370 355.944141 351.079793 7.551890 357.320365 288.919660 253.726985 332.325009 333.657475 0.048979 3.281141 24.514139 4.878390 352.742706 355.322131 60.332455 322.351735 358.788410 35.344905 315.285663 337.225592 3.038244 359.758576 354.010723 
0.000000 0.000000 0.000000 224.552691 0.863906 359.208267 359.782687 349.508511 4.256677 359.190276 14.202875 2.125085 1.619810 357.711137 357.203161 359.364336 358.500323 358.395117 345.757821 2.562254 354.062683 359.942296 8.060994 0.288885 343.162506 355.630640 9.433741 0.869402 1.092750 359.553392 0.780028 4.862854 356.916003 0.610969 358.361831 357.018619 7.618970 6.631249 0.075127 348.828258 3.662857 0.250067 341.621654 332.987358 6.569180 0.506272 355.981201 351.081844 7.429381 357.273846 288.886336 253.623404 332.297807 333.629478 0.022954 3.249922 24.499782 4.894289 352.789288 355.337755 60.361551 322.332811 358.744686 35.347325 315.328693 337.203769 3.049822 359.779274 353.929111 
0.000000 0.000000 0.000000 224.580711 0.905920 359.185696 359.761838 349.450990 4.300728 359.181618 14.188366 2.130774 1.612243 357.740858 357.189388 359.381629 358.516124 358.429109 345.760562 2.527453 354.128711 359.936651 8.049655 0.291235 343.130472 355.631753 9.401690 0.844416 1.090798 359.570259 0.778713 4.862998 356.933902 0.607395 358.362184 357.034884 7.579948 6.632163 0.071198 348.883110 3.659456 0.253566 341.684110 332.968476 6.556463 0.501014 356.014395 351.084814 7.311324 357.228016 288.859980 253.529241 332.296923 333.600391 359.985580 3.236906 24.471416 4.917303 352.825256 355.357217 60.373537 322.305038 358.716580 35.394051 315.314868 337.172978 3.100771 359.807126 353.890042 
0.000000 0.000000 0.000000 224.568208 0.948525 359.174401 359.760921 349.409418 4.336807 359.177849 14.140706 2.131928 1.617291 357.789007 357.171648 359.394432 358.528572 358.474058 345.781426 2.468671 354.185481 359.933431 8.053462 0.288969 343.116709 355.631529 9.363017 0.808579 1.089429 359.594785 0.779105 4.864997 356.941860 0.605395 358.363764 357.042009 7.558491 6.632606 0.066761 348.928646 3.655483 0.259440 341.739000 332.970721 6.556380 0.488321 356.042297 351.089974 7.195245 357.174268 288.844969 253.437468 332.342478 333.583059 359.942113 3.245520 24.435348 4.953731 352.850063 355.381448 60.367496 322.267318 358.698591 35.498766 315.211457 337.124565 3.207636 359.849873 353.949470 
0.000000 0.000000 0.000000 224.524902 0.990400 359.170880 359.775127 349.379995 4.366488 359.178325 14.071573 2.129859 1.632173 357.848633 357.151577 359.418939 358.541697 358.520566 345.815696 2.394284 354.233179 359.932312 8.067217 0.285382 343.117666 355.631090 9.319574 0.782637 1.082838 359.621295 0.780770 4.867326 356.943609 0.604111 358.365211 357.043354 7.551346 6.632347 0.062422 348.965846 3.652673 0.266171 341.792787 332.989085 6.558632 0.469696 356.068318 351.095981 7.080848 357.120183 288.835562 253.352640 332.419731 333.569317 359.893496 3.291449 24.399647 5.010416 352.869847 355.408049 60.352428 322.227821 358.689238 35.627751 315.046348 337.061875 3.367896 359.862347 354.130359 
0.000000 0.000000 0.000000 224.465760 1.027003 359.171708 359.798484 349.359353 4.390554 359.181386 14.000987 2.125872 1.651541 357.911297 357.129586 359.465980 358.550350 358.562847 345.855534 2.317708 354.270016 359.931753 8.087242 0.283421 343.130540 355.631695 9.277729 0.780873 1.062610 359.642197 0.782943 4.868610 356.943787 0.602614 358.365433 357.043196 7.550437 6.631521 0.058813 348.996321 3.649972 0.269871 341.854678 333.019016 6.553495 0.447461 356.095366 351.100247 6.968750 357.078101 288.818074 253.293622 332.496273 333.547567 359.844712 3.373788 24.372989 5.077744 352.873960 355.435029 60.310347 322.193213 358.711758 35.794802 314.859121 337.004962 3.538290 359.832241 354.390848 
0.000000 0.000000 0.000000 224.399697 1.053476 359.176856 359.828067 349.349591 4.407253 359.185451 13.936446 2.119978 1.671603 357.975318 357.105917 359.531828 358.546595 358.601443 345.896078 2.235954 354.295150 359.932134 8.136691 0.277894 343.152071 355.620556 9.247269 0.803299 1.025846 359.659421 0.784982 4.869546 356.943982 0.600870 358.365201 357.043054 7.549107 6.631204 0.056161 349.016658 3.646445 0.268788 341.928753 333.052796 6.539410 0.424784 356.122999 351.101822 6.862552 357.054796 288.788171 253.263391 332.573537 333.511879 359.798895 3.441023 24.365448 5.145957 352.864367 355.464755 60.219410 322.151970 358.774344 36.040775 314.640927 336.962224 3.695576 359.807113 354.685153 
0.000000 0.000000 0.000000 224.317770 1.074709 359.186298 359.866794 349.348864 4.418237 359.192055 13.869967 2.112338 1.696186 358.042599 357.080565 359.594368 358.536242 358.636147 345.941452 2.139787 354.311508 359.934476 8.216851 0.268959 343.185029 355.599478 9.224999 0.828475 0.980133 359.672100 0.787169 4.869326 356.942543 0.599393 358.363794 357.041445 7.549644 6.630423 0.053590 349.031641 3.643227 0.265184 341.998456 333.087634 6.520327 0.402768 356.148896 351.103070 6.761573 357.043988 288.752391 253.263683 332.642757 333.460138 359.767086 3.468023 24.380751 5.214504 352.840816 355.495697 60.097150 322.109954 358.869206 36.338456 314.397002 336.933670 3.843077 359.788677 354.981802 
